<svg width="128" height="128" viewBox="0 0 64 64" fill="none" xmlns="http://www.w3.org/2000/svg">
  <defs>
    <linearGradient id="cat" x1="0" y1="8" x2="0" y2="40" gradientUnits="userSpaceOnUse">
      <stop stop-color="#fdba74"/>
      <stop offset="1" stop-color="#f97316"/>
    </linearGradient>
    <linearGradient id="coin" x1="0" y1="26" x2="0" y2="60" gradientUnits="userSpaceOnUse">
      <stop stop-color="#fde047"/>
      <stop offset="1" stop-color="#f59e0b"/>
    </linearGradient>
  </defs>
  <circle cx="32" cy="43" r="17" fill="url(#coin)" stroke="#b45309" stroke-width="2"/>
  <circle cx="32" cy="43" r="11.5" fill="none" stroke="#d97706" stroke-width="1.6"/>
  <circle cx="26" cy="52.5" r="1.6" fill="#fef9c3"/>
  <path d="M15 26 L17 10 L27 17 Z" fill="url(#cat)" stroke="#c2410c" stroke-width="2" stroke-linejoin="round"/>
  <path d="M49 26 L47 10 L37 17 Z" fill="url(#cat)" stroke="#c2410c" stroke-width="2" stroke-linejoin="round"/>
  <path d="M18.6 21.5 L19.6 14.5 L24.6 18 Z" fill="#fda4af"/>
  <path d="M45.4 21.5 L44.4 14.5 L39.4 18 Z" fill="#fda4af"/>
  <path d="M14 30 a18 15 0 0 1 36 0 l0 0 a18 8 0 0 1 -36 0 Z" fill="url(#cat)" stroke="#c2410c" stroke-width="2"/>
  <path d="M29 16.5 q1.4 2.8 0 5" fill="none" stroke="#ea580c" stroke-width="1.6" stroke-linecap="round"/>
  <path d="M34.5 16.5 q-1.4 2.8 0 5" fill="none" stroke="#ea580c" stroke-width="1.6" stroke-linecap="round"/>
  <circle cx="24" cy="27" r="4.6" fill="#ffffff"/>
  <circle cx="40" cy="27" r="4.6" fill="#ffffff"/>
  <circle cx="25" cy="28" r="2.5" fill="#1e293b"/>
  <circle cx="41" cy="28" r="2.5" fill="#1e293b"/>
  <circle cx="25.9" cy="27.1" r="0.8" fill="#ffffff"/>
  <circle cx="41.9" cy="27.1" r="0.8" fill="#ffffff"/>
  <ellipse cx="22" cy="37" rx="4" ry="3" fill="url(#cat)" stroke="#c2410c" stroke-width="1.6"/>
  <ellipse cx="42" cy="37" rx="4" ry="3" fill="url(#cat)" stroke="#c2410c" stroke-width="1.6"/>
</svg>
